<?xml version="1.0" encoding="utf-8"?>
<!-- Generator: Adobe Illustrator 24.2.1, SVG Export Plug-In . SVG Version: 6.00 Build 0)  -->
<svg version="1.1" id="Layer_1" xmlns="http://www.w3.org/2000/svg" xmlns:xlink="http://www.w3.org/1999/xlink" x="0px" y="0px"
	 viewBox="0 0 1200 1200" style="enable-background:new 0 0 1200 1200;" xml:space="preserve">
<style type="text/css">
	.st0{fill:#2A7BBF;}
	.st1{fill:#2D74A5;}
	.st2{fill:#0E4572;}
	.st3{fill:#CCFFD9;}
	.st4{font-family:'ForteMT';}
	.st5{font-size:21px;}
	.st6{fill:#FFFFFF;}
	.st7{fill:#2C323A;}
	.st8{display:none;}
	.st9{display:inline;fill:none;stroke:#000000;stroke-miterlimit:10;}
	.st10{display:inline;}
</style>
<g id="illustration">
	<path id="path_27" class="st0" d="M615.5,272h21.4c0,0,2.3,51.2,3.7,67.6c-2.1,6.8-9.3,7.9-15.9,7.8c-8.4-0.1-16.3-3.3-17.5-8.7
		L615.5,272z"/>
	<path id="path_26" class="st1" d="M613.2,271.9h24.6c2.2,15.3-25.2,70.1-31.3,70.1L613.2,271.9z"/>
	<polygon class="st2" points="716.3,556.2 539.6,556.2 524.9,340.2 727.8,340.2 	"/>
	<rect x="554" y="361.8" width="144.5" height="41.6"/>
	<rect x="554" y="412.2" width="144.5" height="9.7"/>
	<text transform="matrix(1 0 0 1 594.7 386.0407)" class="st3 st4 st5">BopBot</text>
	<path id="path_25" class="st0" d="M596.2,907.9V760.7l-3.8-3.9c-4.6,3.4-9.9,5.5-15.7,5.9c-0.6,0-1.2,0-1.8,0
		c-6.1,0-11.9-2-16.8-5.4V905c-19.3,7.7-33.2,28.8-33.2,53.7c50.1,0,24.9,0,98.5,0C623.4,936.4,612.3,917.2,596.2,907.9z"/>
	<path id="path_24" class="st0" d="M600,723.5c-0.8-16-12.6-28.3-26.5-27.4c-5,0.3-9.6,2.3-13.5,5.6l36.6,37.9
		C599,734.9,600.2,729.3,600,723.5z"/>
	<path id="path_23" class="st0" d="M549.7,726.7c0.7,16,12.6,28.3,26.5,27.4c4.2-0.3,8.1-1.7,11.4-4l-35.7-36.9
		C550.3,717.3,549.5,721.9,549.7,726.7z"/>
	<path id="path_22" class="st0" d="M702,905.6V758.8c-4.9,3.4-10.7,5.4-16.8,5.4c-0.6,0-1.2,0-1.8,0c-5.8-0.4-11.2-2.5-15.7-5.9
		l-3.8,3.9v146.2c-16.1,9.3-27.2,28.5-27.2,50.8c73.6,0,48.5,0,98.5,0C735.2,934.4,721.3,913.2,702,905.6z"/>
	<path id="path_21" class="st0" d="M710.3,728.3c0.2-4.8-0.6-9.4-2.2-13.5l-35.7,36.9c3.4,2.3,7.2,3.8,11.4,4
		C697.7,756.6,709.6,744.3,710.3,728.3z"/>
	<path id="path_20" class="st0" d="M660.1,725.1c-0.3,5.8,1,11.3,3.3,16l36.7-37.8c-3.8-3.2-8.4-5.3-13.5-5.6
		C672.7,696.8,660.9,709.1,660.1,725.1z"/>
	<path id="path_19" class="st0" d="M483,456.6c-0.7-15.9-12.5-28-26.3-27.2c-5,0.3-9.6,2.3-13.3,5.5l36.3,37.5
		C482.1,467.8,483.3,462.4,483,456.6z"/>
	<path id="path_18" class="st0" d="M459.5,486.9c4.1-0.3,8-1.7,11.3-4l-35.4-36.6c-1.6,4.1-2.4,8.6-2.2,13.4
		C434,475.6,445.8,487.8,459.5,486.9z"/>
	<path id="path_17" class="st0" d="M773.9,456.6c-0.3,5.7,1,11.2,3.3,15.9l36.3-37.5c-3.8-3.2-8.4-5.2-13.4-5.5
		C786.4,428.6,774.6,440.7,773.9,456.6z"/>
	<path id="path_16" class="st0" d="M797.4,486.9c13.8,0.9,25.5-11.3,26.3-27.1c0.2-4.8-0.6-9.4-2.2-13.4l-35.4,36.6
		C789.4,485.2,793.3,486.6,797.4,486.9z"/>
	<path id="path_15" class="st0" d="M496.9,579.5c0-11-7.7-20-17.3-20h-2.4v-68.2l-1.6-1.6c-4.6,3.4-9.9,5.5-15.7,5.9
		c-0.6,0-1.2,0-1.8,0c-7.1,0-13.7-2.6-19.1-7.2v71h-2.8c-9.6,0-17.3,8.9-17.3,19.9c0,0.7,0.1,1.4,0.2,2.1c-0.1,0.7-0.2,1.4-0.2,2.1
		v24.3c0,8.9,6.2,16,13.9,16c7.7,0,13.9-7.2,13.9-16v-8.5l22.7,0v8.5c0,8.9,6.2,16,13.9,16c7.7,0,13.9-7.2,13.9-16l0-24.3
		c0-1.3-0.2-2.5-0.4-3.8C496.9,579.7,496.9,579.6,496.9,579.5z"/>
	<path id="path_14" class="st0" d="M837.9,583.5c0-0.7-0.1-1.4-0.2-2.1c0.1-0.7,0.2-1.4,0.2-2.1c0-11-7.7-20-17.3-20h-2.8v-71
		c-5.3,4.5-11.9,7.2-19,7.2c-0.6,0-1.2,0-1.8,0c-5.8-0.4-11.2-2.5-15.7-5.9l-1.5,1.6v68.2h-2.5c-9.5,0-17.3,9-17.3,20
		c0,0.1,0,0.2,0,0.4c-0.2,1.2-0.4,2.5-0.4,3.8l0,24.3c0,8.9,6.2,16.1,13.9,16.1c7.7,0,13.9-7.2,13.9-16.1v-8.5l22.7,0v8.5
		c0,8.9,6.2,16,13.9,16c7.7,0,13.9-7.2,13.9-16L837.9,583.5z"/>
	<g>
		<path class="st0" d="M636.7,182.2c-0.2,8.5-8.4,18.8-25.9,23.3c-2.1,0.5,9-8.2,13.7-18.5c-19.7,23.6-29.8,27.3-63.8,25.6
			c5.1-22.7,26.3-53.3,63.3-53.7s57.1,21.6,65.1,56.3C667.2,210.1,649.5,212.2,636.7,182.2z"/>
		<path id="path_13" class="st0" d="M680.3,173.6c-4.9,0-13.3,0-23.3,0c-3.2-5-12.8-9-24.8-10.2l-6.7-0.4c-0.3,0-0.6,0-0.8,0v0
			c-0.3,0-0.5,0-0.8,0l-6.7,0.4c-12.1,1.3-21.6,5.2-24.8,10.2c-10,0-18.3,0-23.3,0c-22.9,0,0,113.6,0,113.6h22.1l67,0h22.1
			C680.3,287.2,703.2,173.6,680.3,173.6z"/>
		<circle id="jawMid_3_" cx="625.5" cy="284.1" r="0.8"/>
		<circle id="rightJaw7_3_" cx="614.6" cy="282.1" r="0.8"/>
		<circle id="leftJaw7_3_" cx="636.4" cy="282.1" r="0.8"/>
		<circle id="rightJaw3_3_" cx="580.3" cy="226.6" r="0.8"/>
		<circle id="rightJaw2_3_" cx="580.3" cy="217.1" r="0.8"/>
		<circle id="leftJaw3_3_" cx="668.5" cy="227" r="0.8"/>
		<circle id="leftJaw2_3_" cx="668.5" cy="217.4" r="0.8"/>
		<circle id="topMid_1_" cx="624.7" cy="166" r="0.8"/>
		<circle id="leftTop0_1_" cx="642.4" cy="168.5" r="0.8"/>
		<circle id="rightTop0_1_" cx="606.8" cy="168.5" r="0.8"/>
	</g>
	<ellipse id="path_11" class="st6" cx="653.1" cy="216.1" rx="17.4" ry="20.1"/>
	<path id="path_10" class="st6" d="M578.9,216.1c0-11.1,7.8-20.1,17.4-20.1c9.6,0,17.4,9,17.4,20.1c0,11.1-7.8,20.1-17.4,20.1
		C586.7,236.2,578.9,227.2,578.9,216.1z"/>
	<ellipse id="path_9" class="st0" cx="596.3" cy="216.1" rx="7.9" ry="9.1"/>
	<ellipse id="path_8" class="st0" cx="653.1" cy="216.1" rx="7.9" ry="9.1"/>
	<path id="path_7" class="st0" d="M745.4,340.2l-3.6,0l1.1,44c7.4,2.2,25,21.6,32.8,47.5c6.4-7.3,15.2-11.7,24.8-11.1
		c4.7,0.3,9.1,1.8,13.2,4.2C802.7,380,771.2,342.7,745.4,340.2z"/>
	<path id="path_6" class="st0" d="M443.2,424.8c4-2.4,8.5-3.9,13.2-4.2c9.7-0.6,18.5,3.7,24.8,11c7.9-25.9,25.5-45.3,32.8-47.5
		l-3.1-43.8C485.2,343.4,454.1,380.4,443.2,424.8z"/>
	<path id="path_5" class="st0" d="M556.7,566.2L556.7,566.2l1,127.2c4.5-3.2,9.6-5,15-5.3c8.8-0.6,17,3,23.1,9.2l-1-131l0,0l-1.7,0
		L556.7,566.2z"/>
	<path id="path_4" class="st0" d="M663.7,698.8c6.2-6.2,14.3-9.8,23.1-9.2c5.4,0.3,10.5,2.2,15,5.3l-1-127.2l-38.1,0L663.7,698.8z"
		/>
	<path id="path_2" class="st0" d="M595.4,124.4c-1.7-4.3-5.4-7.4-9.8-7.4c-6,0-10.8,5.6-10.8,12.5c0,6.9,4.8,12.5,10.8,12.5
		c5,0,9.2-4,10.4-9.4c12.3,5.9,18.8,23,21.3,30.8l6.7-0.4C621.7,154.8,613.6,130.4,595.4,124.4z"/>
	<path id="path_1" class="st0" d="M653.5,132.5c1.2,5.4,5.4,9.4,10.4,9.4c6,0,10.8-5.6,10.8-12.5c0-6.9-4.8-12.4-10.8-12.4
		c-4.4,0-8.2,3-9.8,7.4c-18.2,6-26.3,30.4-28.5,38.6l6.7,0.4C634.6,155.4,641.1,138.4,653.5,132.5z"/>
	<g>
		<path class="st0" d="M675,297.9c-27.8-13.5-68.3-15.8-101.3-0.1c-5.1-10.8-14-23.8-13.1-58.4c1.1-40.5,15.5-80.5,65.3-80.4
			c47.8,0,61.8,39.1,62.5,79.7C688.4,271.8,675,297.9,675,297.9z"/>
		<circle class="st1" cx="686.2" cy="233.8" r="12.1"/>
		<circle class="st1" cx="563.6" cy="233.8" r="12.1"/>
		<circle id="jawMid_2_" cx="625.5" cy="284.1" r="0.8"/>
		<circle id="rightJaw7_2_" cx="614.6" cy="282.1" r="0.8"/>
		<circle id="leftJaw7_2_" cx="636.4" cy="282.1" r="0.8"/>
		<circle id="rightJaw3_2_" cx="580.3" cy="226.6" r="0.8"/>
		<circle id="rightJaw2_2_" cx="580.3" cy="217.1" r="0.8"/>
		<circle id="leftJaw3_2_" cx="668.5" cy="227" r="0.8"/>
		<circle id="leftJaw2_2_" cx="668.5" cy="217.4" r="0.8"/>
		<circle id="topMid_2_" cx="624.7" cy="166" r="0.8"/>
		<circle id="leftTop0_2_" cx="642.4" cy="168.5" r="0.8"/>
		<circle id="rightTop0_2_" cx="606.8" cy="168.5" r="0.8"/>
		<path class="st1" d="M651.6,162.2c1.3-3.6,2.1-7.4,2.5-11.2c2.6,3.1,3.8,7.4,3.2,11.4c-0.1,0.7-0.3,1.5-0.7,2.1
			c-0.7,0.9-1.9,1.2-3,1.4c-1.8,0.4-3.6,0.8-5.5,1C649.7,165.5,650.9,164.2,651.6,162.2z"/>
		<path class="st1" d="M650.5,166.7c5.8-0.4,10.8-5.7,11-11.5c2.3,1,3.4,3.9,2.7,6.3c-0.7,2.4-2.9,4.2-5.3,4.9
			c-2.4,0.7-5,0.4-7.4-0.3"/>
	</g>
	<g>
		<ellipse class="st1" cx="625.2" cy="228.3" rx="56.4" ry="57.6"/>
		<circle id="jawMid_1_" cx="625.5" cy="284.1" r="0.8"/>
		<circle id="rightJaw7_1_" cx="614.6" cy="282.1" r="0.8"/>
		<circle id="leftJaw7_1_" cx="636.4" cy="282.1" r="0.8"/>
		<circle id="rightJaw3_1_" cx="580.3" cy="226.6" r="0.8"/>
		<circle id="rightJaw2_1_" cx="580.3" cy="217.1" r="0.8"/>
		<circle id="leftJaw3_1_" cx="668.5" cy="227" r="0.8"/>
		<circle id="leftJaw2_1_" cx="668.5" cy="217.4" r="0.8"/>
		<circle id="topMid_3_" cx="624.7" cy="166" r="0.8"/>
		<circle id="leftTop0_3_" cx="642.4" cy="168.5" r="0.8"/>
		<circle id="rightTop0_3_" cx="606.8" cy="168.5" r="0.8"/>
	</g>
	<g>
		<ellipse class="st7" cx="654.8" cy="231.6" rx="3.6" ry="5.8"/>
		<ellipse class="st3" cx="659.2" cy="247.5" rx="7.8" ry="6.2"/>
		<circle id="leftEye0_1_" cx="654.3" cy="215.1" r="0.8"/>
		<circle id="leftEye1_1_" cx="649.1" cy="211.4" r="0.8"/>
		<circle id="leftEye5_1_" cx="649.1" cy="217.4" r="0.8"/>
		<circle id="leftEye2_1_" cx="642.8" cy="211.4" r="0.8"/>
		<circle id="leftEye3_1_" cx="637.6" cy="215.6" r="0.8"/>
		<circle id="leftEye4_1_" cx="642.8" cy="216.6" r="0.8"/>
		<g>
			<ellipse class="st3" cx="590.1" cy="247.5" rx="7.8" ry="6.2"/>
			<ellipse class="st7" cx="593" cy="231.6" rx="3.6" ry="5.8"/>
			<circle id="rightEye0_1_" cx="594.7" cy="215.1" r="0.8"/>
			<circle id="rightEye1_1_" cx="599.9" cy="211.4" r="0.8"/>
			<circle id="rightEye5_1_" cx="599.9" cy="217.4" r="0.8"/>
			<circle id="rightEye2_1_" cx="606.2" cy="211.4" r="0.8"/>
			<circle id="rightEye3_1_" cx="611.4" cy="215.6" r="0.8"/>
			<circle id="rightEye4_1_" cx="606.2" cy="216.6" r="0.8"/>
		</g>
	</g>
	<g>
		<path class="st7" d="M666.7,220.8c-7.5-3.4-8.8-2.2-19-1c-0.3-0.8-0.5-1.7-0.1-4c6,0.5,16-2.3,21.1,6.1
			C668,221.5,667.4,221.1,666.7,220.8z"/>
		<circle id="leftBrow1_1_" cx="656.2" cy="203.6" r="0.8"/>
		<circle id="leftBrow4_1_" cx="632.6" cy="205.7" r="0.8"/>
		<circle id="leftBrow3_1_" cx="642.6" cy="202.5" r="0.8"/>
		<circle id="leftBrow0_1_" cx="660.2" cy="206.5" r="0.8"/>
		<circle id="leftBrow2_1_" cx="649.9" cy="202.1" r="0.8"/>
	</g>
	<g>
		<path class="st7" d="M578.7,221.9c3.1-6.1,13.1-6.7,21.1-6.1c0.7,2.3,0.7,3.8-0.1,3.7C596.6,219.4,589.5,215.6,578.7,221.9z"/>
		<circle id="rightBrow1_1_" cx="592.5" cy="203.2" r="0.8"/>
		<circle id="rightBrow4_1_" cx="615.8" cy="206.2" r="0.8"/>
		<circle id="rightBrow3_1_" cx="606" cy="202.2" r="0.8"/>
		<circle id="rightBrow0_1_" cx="588.5" cy="206.9" r="0.8"/>
		<circle id="rightBrow2_1_" cx="598.7" cy="202.2" r="0.8"/>
	</g>
	<g>
		<path id="rightMiddleLip_2_" d="M610.8,254.6c0.4,0,0.8,0.4,0.8,0.8s-0.4,0.8-0.8,0.8s-0.8-0.4-0.8-0.8S610.4,254.6,610.8,254.6z"
			/>
		<circle id="upperLipBottomMid_1_" cx="624.5" cy="255.1" r="0.8"/>
		<circle id="rightUpperLipBottom1_1_" cx="620.6" cy="254.6" r="0.8"/>
		<path id="leftMiddleLip_2_" d="M638.2,254.6c0.4,0,0.8,0.4,0.8,0.8s-0.4,0.8-0.8,0.8s-0.8-0.4-0.8-0.8S637.8,254.6,638.2,254.6z"
			/>
		<circle id="leftUpperLipBottom1_1_" cx="628.4" cy="254.6" r="0.8"/>
		<path class="st6" d="M611.6,255.4c0,0,7.4-0.2,12.9-0.2s13.9-0.1,13.9-0.1s-6.1,4-13.9,4C616.6,259.1,611.6,255.4,611.6,255.4z"/>
		<circle id="lowerLipTopMid_2_" cx="624.5" cy="258.1" r="0.8"/>
		<circle id="rightLowerLipTop0_2_" cx="620.6" cy="257.4" r="0.8"/>
		<circle id="leftLowerLipTop0_2_" cx="628.4" cy="257.4" r="0.8"/>
	</g>
</g>
<g id="skeleton_1_" class="st8">
	<polygon class="st9" points="518.8,349.5 569.1,565.3 685.5,564.5 731.7,349.5 	"/>
	<polyline class="st9" points="517.8,349.5 457.9,461.5 458,572.5 	"/>
	<polyline class="st9" points="733.2,349.1 799,457.6 798.9,573.5 	"/>
	<polyline class="st9" points="569.1,565.3 575.5,725.5 575.5,933.5 	"/>
	<polyline class="st9" points="685.5,564.5 685.5,725.5 685.5,933.5 	"/>
	<polyline class="st9" points="624.5,170 604.7,172.5 592.2,182 583.6,196.1 581.1,205.4 580.3,217.1 580.3,226.6 581.1,248.3 
		587.9,268.3 599.5,280.8 609.5,287.5 624.5,290.7 639.3,287.9 649.3,281.2 660.9,268.6 667.7,248.6 668.5,227 668.5,217.4 
		667.7,205.7 665.2,196.5 657,182 644.4,172.5 624.5,170 	"/>
	<polyline class="st9" points="588.5,206.9 592.5,203.2 598.7,202.2 606,202.2 615.8,206.2 	"/>
	<polygon class="st9" points="594.7,215.1 599.9,211.4 606.2,211.4 611.4,215.6 606.2,216.6 599.9,217.4 	"/>
	<polyline class="st9" points="613,233.2 618.2,233.2 623.7,234 623.7,228.7 623.7,221.6 623.7,216.1 623.7,210.3 	"/>
	<polyline class="st9" points="660,206.5 656,203.6 649.7,202.1 642.4,202.5 632.4,205.7 	"/>
	<polygon class="st9" points="654.1,215.1 648.8,211.4 642.5,211.4 637.4,215.6 642.5,216.6 648.8,217.4 	"/>
	<polyline class="st9" points="634.1,233.2 629.1,233.2 623.7,234 	"/>
	<polygon class="st9" points="607,255.3 613.9,251.9 620.4,250.8 624.5,251.7 628.7,250.8 635.1,251.9 642,255.3 635.6,261.6 
		628.5,264.4 624.5,264.9 620.4,264.4 613.4,261.6 	"/>
	<polyline class="st9" points="607,255.3 610.6,255.6 620.6,254.8 624.5,255.3 628.5,254.8 638.4,255.6 642,255.3 	"/>
	<polyline class="st9" points="607,255.3 610.6,255.6 620.6,257.7 624.5,258.5 628.5,257.7 638.4,255.6 642,255.3 	"/>
	<circle id="rightShoulder" class="st10" cx="518.9" cy="349.2" r="8.2"/>
	<circle id="rightElbow" class="st10" cx="458.2" cy="461.3" r="8.2"/>
	<circle id="rightWrist" class="st10" cx="458.2" cy="572.4" r="8.2"/>
	<circle id="rightHip" class="st10" cx="569.2" cy="565" r="8.2"/>
	<circle id="rightKnee" class="st10" cx="575.6" cy="725.2" r="8.2"/>
	<circle id="rightAnkle" class="st10" cx="575.6" cy="933.2" r="8.2"/>
	<circle id="leftElbow" class="st10" cx="798.8" cy="457.4" r="8.2"/>
	<circle id="leftWrist" class="st10" cx="798.8" cy="573.2" r="8.2"/>
	<circle id="leftHip" class="st10" cx="685.6" cy="564.2" r="8.2"/>
	<circle id="leftKnee" class="st10" cx="685.6" cy="725.2" r="8.2"/>
	<circle id="leftAnkle" class="st10" cx="685.6" cy="933.2" r="8.2"/>
	<circle id="rightEye0" class="st10" cx="594.7" cy="215.1" r="0.8"/>
	<circle id="rightBrow1" class="st10" cx="592.5" cy="203.2" r="0.8"/>
	<circle id="rightBrow4" class="st10" cx="615.8" cy="206.2" r="0.8"/>
	<circle id="nose1" class="st10" cx="623.7" cy="216.1" r="0.8"/>
	<circle id="rightBrow3" class="st10" cx="606" cy="202.2" r="0.8"/>
	<circle id="rightEye1" class="st10" cx="599.9" cy="211.4" r="0.8"/>
	<circle id="rightBrow0" class="st10" cx="588.5" cy="206.9" r="0.8"/>
	<circle id="rightBrow2" class="st10" cx="598.7" cy="202.2" r="0.8"/>
	<circle id="rightEye5" class="st10" cx="599.9" cy="217.4" r="0.8"/>
	<circle id="rightEye2" class="st10" cx="606.2" cy="211.4" r="0.8"/>
	<circle id="rightEye3" class="st10" cx="611.4" cy="215.6" r="0.8"/>
	<circle id="nose0" class="st10" cx="623.7" cy="210.3" r="0.8"/>
	<circle id="nose3" class="st10" cx="623.7" cy="228.7" r="0.8"/>
	<circle id="rightNose0" class="st10" cx="613" cy="233.2" r="0.8"/>
	<circle id="rightMouthCorner" class="st10" cx="607" cy="255.3" r="0.8"/>
	<circle id="rightNose1" class="st10" cx="618.2" cy="233.2" r="0.8"/>
	<circle id="rightUpperLipTop0" class="st10" cx="613.9" cy="251.9" r="0.8"/>
	<circle id="nose2" class="st10" cx="623.7" cy="221.6" r="0.8"/>
	<circle id="nose4" class="st10" cx="623.7" cy="234" r="0.8"/>
	<circle id="upperLipTopMid" class="st10" cx="624.5" cy="251.7" r="0.8"/>
	<circle id="rightUpperLipTop1" class="st10" cx="620.4" cy="250.8" r="0.8"/>
	<path id="rightMiddleLip" class="st10" d="M610.6,254.8c0.4,0,0.8,0.4,0.8,0.8c0,0.4-0.4,0.8-0.8,0.8s-0.8-0.4-0.8-0.8
		S610.2,254.8,610.6,254.8z"/>
	<circle id="lowerLipBottomMid" class="st10" cx="624.5" cy="264.9" r="0.8"/>
	<circle id="upperLipBottomMid" class="st10" cx="624.5" cy="255.3" r="0.8"/>
	<circle id="lowerLipTopMid" class="st10" cx="624.5" cy="258.4" r="0.8"/>
	<circle id="rightUpperLipBottom1" class="st10" cx="620.6" cy="254.8" r="0.8"/>
	<circle id="rightLowerLipTop0" class="st10" cx="620.6" cy="257.7" r="0.8"/>
	<circle id="rightLowerLipBottom1" class="st10" cx="620.4" cy="264.4" r="0.8"/>
	<circle id="rightLowerLipBottom0" class="st10" cx="613.4" cy="261.6" r="0.8"/>
	<circle id="rightEye4" class="st10" cx="606.2" cy="216.6" r="0.8"/>
	<circle id="jawMid" class="st10" cx="624.5" cy="290.7" r="0.8"/>
	<circle id="rightJaw7" class="st10" cx="609.5" cy="287.5" r="0.8"/>
	<circle id="rightJaw6" class="st10" cx="599.5" cy="280.8" r="0.8"/>
	<circle id="rightJaw5" class="st10" cx="587.9" cy="268.3" r="0.8"/>
	<circle id="rightJaw4" class="st10" cx="581.1" cy="248.3" r="0.8"/>
	<circle id="rightJaw3" class="st10" cx="580.3" cy="226.6" r="0.8"/>
	<circle id="rightJaw2" class="st10" cx="580.3" cy="217.1" r="0.8"/>
	<circle id="rightJaw1" class="st10" cx="581.1" cy="205.4" r="0.8"/>
	<circle id="rightJaw0" class="st10" cx="583.6" cy="196.1" r="0.8"/>
	<circle id="topMid" class="st10" cx="624.7" cy="170" r="0.8"/>
	<circle id="leftTop0" class="st10" cx="644.4" cy="172.5" r="0.8"/>
	<circle id="leftTop1" class="st10" cx="657" cy="182" r="0.8"/>
	<circle id="leftEye0" class="st10" cx="654.3" cy="215.1" r="0.8"/>
	<circle id="leftBrow1" class="st10" cx="656.2" cy="203.6" r="0.8"/>
	<circle id="leftBrow4" class="st10" cx="632.6" cy="205.7" r="0.8"/>
	<circle id="leftBrow3" class="st10" cx="642.6" cy="202.5" r="0.8"/>
	<circle id="leftEye1" class="st10" cx="649.1" cy="211.4" r="0.8"/>
	<circle id="leftBrow0" class="st10" cx="660.2" cy="206.5" r="0.8"/>
	<circle id="leftBrow2" class="st10" cx="649.9" cy="202.1" r="0.8"/>
	<circle id="leftEye5" class="st10" cx="649.1" cy="217.4" r="0.8"/>
	<circle id="leftEye2" class="st10" cx="642.8" cy="211.4" r="0.8"/>
	<circle id="leftEye3" class="st10" cx="637.6" cy="215.6" r="0.8"/>
	<circle id="leftNose0" class="st10" cx="634.1" cy="233.2" r="0.8"/>
	<circle id="leftMouthCorner" class="st10" cx="642" cy="255.3" r="0.8"/>
	<circle id="leftNose1" class="st10" cx="629.3" cy="233.2" r="0.8"/>
	<circle id="leftUpperLipTop0" class="st10" cx="635.1" cy="251.9" r="0.8"/>
	<circle id="leftUpperLipTop1" class="st10" cx="628.7" cy="250.8" r="0.8"/>
	<path id="leftMiddleLip" class="st10" d="M638.4,254.8c0.4,0,0.8,0.4,0.8,0.8c0,0.4-0.4,0.8-0.8,0.8s-0.8-0.4-0.8-0.8
		S638,254.8,638.4,254.8z"/>
	<circle id="leftUpperLipBottom1" class="st10" cx="628.5" cy="254.8" r="0.8"/>
	<circle id="leftLowerLipTop0" class="st10" cx="628.5" cy="257.7" r="0.8"/>
	<circle id="leftLowerLipBottom1" class="st10" cx="628.7" cy="264.4" r="0.8"/>
	<circle id="leftLowerLipBottom0" class="st10" cx="635.6" cy="261.6" r="0.8"/>
	<circle id="leftEye4" class="st10" cx="642.8" cy="216.6" r="0.8"/>
	<circle id="leftJaw7" class="st10" cx="639.3" cy="287.9" r="0.8"/>
	<circle id="leftJaw6" class="st10" cx="649.3" cy="281.2" r="0.8"/>
	<circle id="leftJaw5" class="st10" cx="660.9" cy="268.6" r="0.8"/>
	<circle id="leftJaw4" class="st10" cx="667.7" cy="248.6" r="0.8"/>
	<circle id="leftJaw3" class="st10" cx="668.5" cy="227" r="0.8"/>
	<circle id="leftJaw2" class="st10" cx="668.5" cy="217.4" r="0.8"/>
	<circle id="leftJaw1" class="st10" cx="667.7" cy="205.7" r="0.8"/>
	<circle id="leftJaw0" class="st10" cx="665.2" cy="196.5" r="0.8"/>
	<circle id="rightTop0" class="st10" cx="604.8" cy="172.5" r="0.8"/>
	<circle id="rightTop1" class="st10" cx="592.2" cy="182" r="0.8"/>
	<circle id="leftShoulder" class="st10" cx="731.8" cy="349.2" r="8.2"/>
</g>
</svg>
